<svg id="Grupo_1328" data-name="Grupo 1328" xmlns="http://www.w3.org/2000/svg" width="583.3" height="129.7" viewBox="0 0 583.3 129.7">
  <path id="Trazado_1600" data-name="Trazado 1600" d="M194.7,85.2,189,77.3l1.7-.5a26.744,26.744,0,0,0,19.7-26.1c0-16.3-12.8-28.6-29.7-28.6h-47v81.4h17.4V78.1h17.6l8.9,14.6c5.9,10.7,15.5,15.9,29.3,15.9h4.7V92.3h-2.5a17.273,17.273,0,0,1-14.4-7.1m-14.3-22H151.3V38.3h29.1c6.9,0,12.1,5.4,12.1,12.5a11.906,11.906,0,0,1-12.1,12.4" fill="#41337a"/>
  <path id="Trazado_1601" data-name="Trazado 1601" d="M426.1,84.1v-16c0-12.1-7.8-20-19.6-20-7.6,0-13.8,3.2-17.9,9.3-3.3-5.8-9.3-9.3-17.1-9.3a19.522,19.522,0,0,0-15.4,7V49.4H340.6v54.1h15.5V72.9c0-5.9,4.1-10,10.2-10,5.6,0,9.3,3.9,9.3,9.7v30.6h15.5V72.9c0-5.9,4.1-10,10.2-10,5.6,0,9.3,3.9,9.3,9.7V87.3c0,10.5,5.6,15.9,16.5,15.9h4.3V88.4h-1.1c-2.6,0-4.2-1.6-4.2-4.3" fill="#41337a"/>
  <path id="Trazado_1602" data-name="Trazado 1602" d="M444.8,23.4a9.228,9.228,0,0,0-9.5,9.4,9.55,9.55,0,0,0,19.1,0c.1-5.3-4-9.4-9.6-9.4" fill="#41337a"/>
  <rect id="Rectángulo_1354" data-name="Rectángulo 1354" width="15.5" height="54.1" transform="translate(437.1 49.3)" fill="#41337a"/>
  <path id="Trazado_1603" data-name="Trazado 1603" d="M488.4,61.7a13.267,13.267,0,0,1,12.1,7.6h16.4c-2.4-13.1-14-22.6-28.5-22.6-16.6,0-29.1,12.2-29.1,28.3s12.5,28.3,29.1,28.3c14.5,0,26.1-9.4,28.5-22.6H500.5a13.1,13.1,0,0,1-12.1,7.6c-7.6,0-13.2-5.7-13.2-13.4a12.881,12.881,0,0,1,13.2-13.2" fill="#41337a"/>
  <path id="Trazado_1604" data-name="Trazado 1604" d="M582.3,87.1c-2.8,0-4.3-1.6-4.3-4.3V48H562.5v6a21.289,21.289,0,0,0-16.3-7.2c-14.8,0-26.1,12.2-26.1,28.3s11.2,28.3,26.1,28.3A21.608,21.608,0,0,0,564,94.3c2.3,5.2,7.4,7.8,15,7.8h4.3v-15Zm-33.1,1.3c-7.5,0-13.1-5.7-13.1-13.4,0-7.6,5.6-13.4,13.1-13.4,7.6,0,13.2,5.7,13.2,13.4a12.815,12.815,0,0,1-13.2,13.4" fill="#41337a"/>
  <path id="Trazado_1605" data-name="Trazado 1605" d="M305.9,46.8a29.236,29.236,0,0,0-23,10.5c-5.4,5.5-5.1,11.4-8.1,11.2-1.9-.1-3.3-2.7-4.8-5.5-.5-1.1-1.1-2.1-1.7-3.2a14.647,14.647,0,0,0-1.7-2.4,29.225,29.225,0,0,0-23.1-10.6c-16.6,0-29.1,12.2-29.1,28.3s12.5,28.3,29.1,28.3a30.471,30.471,0,0,0,16.3-4.6c.5-.1.8-.3,2.5-1.6,6.5-5,8.3-12.7,12.6-12.7,2.5,0,5.9,6.3,8.5,8.8A29.347,29.347,0,0,0,306,103.4c16.6,0,29.1-12.2,29.1-28.3C335,59,322.5,46.8,305.9,46.8M230.2,75.1a12.988,12.988,0,0,1,13.2-13.4c7.6,0,13.2,5.7,13.2,13.4a13.2,13.2,0,1,1-26.4,0m75.7,13.3c-7.6,0-13.2-5.7-13.2-13.4a12.988,12.988,0,0,1,13.2-13.4c7.6,0,13.2,5.7,13.2,13.4s-5.6,13.4-13.2,13.4" fill="#41337a"/>
  <path id="Trazado_1606" data-name="Trazado 1606" d="M74.9,75A41.783,41.783,0,0,0,89.4,43.2C89.4,19.3,69.4,0,44.7,0S0,19.3,0,43.2A42.282,42.282,0,0,0,14.5,75L4.1,115.4a10.776,10.776,0,0,0,7.1,13.7,10.3,10.3,0,0,0,3.5.6H73.6a10.974,10.974,0,0,0,11.2-10.8,9.737,9.737,0,0,0-.6-3.4Z" fill="#724cf5"/>
  <path id="Trazado_1607" data-name="Trazado 1607" d="M76.9,43.4c0-8.6-6.7-15.1-15.6-15.1a8.083,8.083,0,0,0-1.6.1,8.6,8.6,0,0,0,.1-1.6c0-8.9-6.5-15.6-15.1-15.6S29.6,17.9,29.6,26.8a8.083,8.083,0,0,0,.1,1.6c-.5,0-1.1-.1-1.6-.1-8.9,0-15.6,6.5-15.6,15.1s6.7,15.1,15.6,15.1a8.083,8.083,0,0,0,1.6-.1c0,.5-.1,1.1-.1,1.6a15.152,15.152,0,0,0,9.8,14.6v32.7h0v11H61.3a1.473,1.473,0,0,0,1.5-1.5v-8a1.473,1.473,0,0,0-1.5-1.5H50.1v-4.6h6.2a1.473,1.473,0,0,0,1.5-1.5V93.5A1.473,1.473,0,0,0,56.3,92H50.1V74.6c5.8-2.1,9.7-7.7,9.7-14.6a8.083,8.083,0,0,0-.1-1.6c.5,0,1.1.1,1.6.1,8.9,0,15.6-6.5,15.6-15.1m-8.5-.1a6.981,6.981,0,0,1-6.9,7.2,7.148,7.148,0,0,1-7.2-7.1,6.981,6.981,0,0,1,6.9-7.2,7.214,7.214,0,0,1,7.2,7.1M44.7,19.6a6.981,6.981,0,0,1,7.2,6.9,7.148,7.148,0,0,1-7.1,7.2,6.981,6.981,0,0,1-7.2-6.9,7.085,7.085,0,0,1,7.1-7.2M21,43.4a6.981,6.981,0,0,1,6.9-7.2,7.148,7.148,0,0,1,7.2,7.1,6.981,6.981,0,0,1-6.9,7.2A7.149,7.149,0,0,1,21,43.4M44.7,67.1a6.981,6.981,0,0,1-7.2-6.9A7.148,7.148,0,0,1,44.6,53a6.981,6.981,0,0,1,7.2,6.9,7.085,7.085,0,0,1-7.1,7.2" fill="#ade9e4"/>
</svg>
